<?xml version="1.0" encoding="UTF-8"?><svg id="Layer_1" xmlns="http://www.w3.org/2000/svg" viewBox="0 0 200 200"><defs><style>.cls-1{fill-rule:evenodd;}</style></defs><path class="cls-1" d="m100,16.65C52.78,16.65,14.54,54.89,14.54,102.11c0,37.81,24.46,69.75,58.43,81.08,4.27.75,5.88-1.82,5.88-4.06,0-2.03-.11-8.76-.11-15.92-21.47,3.95-27.03-5.23-28.74-10.04-.96-2.46-5.13-10.04-8.76-12.07-2.99-1.6-7.26-5.55-.11-5.66,6.73-.11,11.54,6.2,13.14,8.76,7.69,12.93,19.98,9.29,24.89,7.05.75-5.55,2.99-9.29,5.45-11.43-19.01-2.14-38.88-9.51-38.88-42.19,0-9.29,3.31-16.98,8.76-22.97-.85-2.14-3.85-10.9.85-22.65,0,0,7.16-2.24,23.5,8.76,6.84-1.92,14.1-2.88,21.36-2.88s14.53.96,21.36,2.88c16.34-11.11,23.5-8.76,23.5-8.76,4.7,11.75,1.71,20.51.85,22.65,5.45,5.98,8.76,13.57,8.76,22.97,0,32.79-19.98,40.06-38.99,42.19,3.1,2.67,5.77,7.8,5.77,15.81,0,11.43-.11,20.62-.11,23.5,0,2.24,1.6,4.91,5.88,4.06,33.76-11.32,58.22-43.37,58.22-81.08,0-47.22-38.24-85.46-85.46-85.46Z"/></svg>