<?xml version="1.0" encoding="UTF-8"?><svg id="Layer_1" xmlns="http://www.w3.org/2000/svg" viewBox="0 0 200 200"><path d="m146.29,16.65H53.7c-20.46,0-37.05,16.59-37.05,37.05v92.59c0,20.46,16.59,37.05,37.05,37.05h92.59c20.46,0,37.06-16.59,37.06-37.05V53.7c0-20.46-16.6-37.05-37.06-37.05Zm-75.54,130.92h-22.34v-71.75h22.34v71.75Zm-11.36-80.52c-7.07,0-11.64-4.93-11.61-11.14-.03-6.38,4.65-11.17,11.8-11.17s11.71,4.76,11.79,11.17c.03,6.21-4.57,11.14-11.99,11.14Zm97.29,80.52h-22.34v-39.77c0-9.24-3.3-15.57-11.35-15.57-6.14,0-9.77,4.31-11.32,8.43-.57,1.4-.78,3.52-.78,5.52v41.4h-22.33v-48.83c0-8.93.31-16.76,0-23.19h19.82l-.03,10.21h.47c2.89-4.63,10.19-11.56,22.17-11.56,14.64,0,25.68,9.77,25.68,30.89v42.47Z"/></svg>