<svg id="Layer_1" data-name="Layer 1" xmlns="http://www.w3.org/2000/svg" viewBox="0 0 200 200"><defs><style>.cls-1{fill:none;stroke-linecap:round;stroke-linejoin:round;stroke-width:13px;}.cls-1,.cls-2{stroke:#000;}.cls-2{stroke-miterlimit:10;}</style></defs><path class="cls-1" d="M145,33.76V166.24c0,6.69-4.49,12.11-10,12.11H43c-5.55,0-10-5.42-10-12.11V33.76c0-6.69,4.49-12.11,10-12.11h92C140.5,21.65,145,27.07,145,33.76Z"/><line class="cls-1" x1="167.05" y1="162.23" x2="167.05" y2="134.85"/><line class="cls-1" x1="167.05" y1="113.69" x2="167.05" y2="86.31"/><line class="cls-1" x1="167.05" y1="65.1" x2="167.05" y2="37.72"/><circle class="cls-2" cx="88.11" cy="81.51" r="25.43"/><path class="cls-2" d="M126.54,133.51a5.93,5.93,0,0,1-5.93,5.93h-65a5.93,5.93,0,0,1-5.93-5.93,38.43,38.43,0,0,1,76.86,0Z"/></svg>