<?xml version="1.0" encoding="utf-8"?>
<!-- Generator: Adobe Illustrator 26.1.0, SVG Export Plug-In . SVG Version: 6.00 Build 0)  -->
<svg version="1.1" id="Layer_1" xmlns="http://www.w3.org/2000/svg" xmlns:xlink="http://www.w3.org/1999/xlink" x="0px" y="0px"
	 viewBox="0 0 200 200" style="enable-background:new 0 0 200 200;" xml:space="preserve">
<style type="text/css">
	.st0{fill:none;stroke:#000000;stroke-width:13;stroke-linecap:round;stroke-linejoin:round;}
	.st1{fill:none;stroke:#000000;stroke-width:7;stroke-linejoin:round;}
	.st2{fill:none;stroke:#000000;stroke-width:13;stroke-linecap:round;stroke-linejoin:round;stroke-miterlimit:10;}
	.st3{opacity:0.53;fill:#DD00F9;}
	.st4{fill:#DD00F9;}
	.st5{opacity:0.51;fill:#DD00F9;}
	.st6{opacity:0.44;fill:#DD00F9;}
</style>
<path class="st0" d="M481,46.6V33.8c0-6.7,5.4-12.1,12.1-12.1H604c6.7,0,12.1,5.4,12.1,12.1v12.9"/>
<path class="st0" d="M616.2,114.5v51.7c0,6.7-5.4,12.1-12.1,12.1H493.2c-6.7,0-12.1-5.4-12.1-12.1v-51.7"/>
<path class="st0" d="M629.8,72.7"/>
<path class="st0" d="M548.6,39.1"/>
<path d="M631.6,83.7l-20.8,13.4l-0.1-0.1c-17.4-17.9-39.4-27.7-62-27.7s-44.7,9.8-62,27.7l-0.1,0.1l-20.8-13.4
	c-2-1.3-3.1-3.6-2.9-5.9c0.2-2.4,1.7-4.4,3.9-5.3l79.5-32.8c1.6-0.6,3.3-0.6,4.9,0l79.5,32.8c2.2,0.9,3.7,3,3.9,5.3
	C634.7,80.1,633.5,82.4,631.6,83.7z"/>
<path d="M591.7,102.4v33.3c0,2.5-1.3,4.8-3.3,5.8c-0.8,0.4-1.6,0.6-2.4,0.6c-1.3,0-2.6-0.5-3.7-1.5c-9.4-9-21.4-13.9-33.7-13.9
	s-24.3,5-33.7,13.9c-1.7,1.6-4.1,2-6.1,0.9c-2-1-3.3-3.3-3.3-5.8v-33.3c0-1.9,0.7-3.7,2-4.9c11.5-10.9,26.1-17,41-17
	c15,0,29.5,6,41,17C590.9,98.7,591.7,100.5,591.7,102.4z"/>
<path d="M362.3-157.3c0,2-1,4-2.6,5.2c-3,2.3-4.6,6.1-4.1,9.8c0.3,2-0.4,4-1.8,5.5c-1.4,1.4-3.5,2.1-5.5,1.8c-3.8-0.5-7.5,1-9.8,4.1
	c-1.2,1.6-3.1,2.6-5.2,2.6c-2,0-4-1-5.2-2.6c-2.3-3-6.1-4.6-9.8-4.1c-2,0.3-4-0.4-5.5-1.8s-2.1-3.5-1.8-5.5c0.5-3.8-1-7.5-4.1-9.8
	c-1.6-1.2-2.6-3.1-2.6-5.2c0-2,1-4,2.6-5.2c3-2.3,4.6-6.1,4.1-9.8c-0.3-2,0.4-4,1.8-5.5s3.5-2.1,5.5-1.8c3.8,0.5,7.5-1,9.8-4.1
	c1.2-1.6,3.1-2.6,5.2-2.6c2,0,4,1,5.2,2.6c2.3,3,6.1,4.6,9.8,4.1c2-0.3,4,0.4,5.5,1.8c1.4,1.4,2.1,3.5,1.8,5.5
	c-0.5,3.8,1,7.5,4.1,9.8C361.3-161.3,362.3-159.4,362.3-157.3z"/>
<path d="M362.3-157.3c0,2-1,4-2.6,5.2c-3,2.3-4.6,6.1-4.1,9.8c0.3,2-0.4,4-1.8,5.5c-1.4,1.4-3.5,2.1-5.5,1.8c-3.8-0.5-7.5,1-9.8,4.1
	c-1.2,1.6-3.1,2.6-5.2,2.6c-2,0-4-1-5.2-2.6c-2.3-3-6.1-4.6-9.8-4.1c-2,0.3-4-0.4-5.5-1.8s-2.1-3.5-1.8-5.5c0.5-3.8-1-7.5-4.1-9.8
	c-1.6-1.2-2.6-3.1-2.6-5.2c0-2,1-4,2.6-5.2c3-2.3,4.6-6.1,4.1-9.8c-0.3-2,0.4-4,1.8-5.5s3.5-2.1,5.5-1.8c3.8,0.5,7.5-1,9.8-4.1
	c1.2-1.6,3.1-2.6,5.2-2.6c2,0,4,1,5.2,2.6c2.3,3,6.1,4.6,9.8,4.1c2-0.3,4,0.4,5.5,1.8c1.4,1.4,2.1,3.5,1.8,5.5
	c-0.5,3.8,1,7.5,4.1,9.8C361.3-161.3,362.3-159.4,362.3-157.3z"/>
<path d="M347.8-142.9v38.6c0,2.4-2.7,3.7-4.6,2.3l-9.9-7.2l-9.9,7.2c-1.9,1.4-4.6,0-4.6-2.3v-38.6H347.8z"/>
<path d="M454.3-131.4v33.9c0,2.4-2.7,3.7-4.6,2.3l-9.9-7.2l-9.9,7.2c-1.9,1.4-4.6,0-4.6-2.3v-33.9c3.3,0.3,6.4,2,8.5,4.8
	c1.4,1.9,3.7,3,6,3c2.4,0,4.6-1.1,6-3C447.8-129.4,450.9-131.1,454.3-131.4z"/>
<path d="M468.7-157.3c0,2-1,4-2.6,5.2c-3,2.3-4.6,6.1-4.1,9.8c0.3,2-0.4,4-1.8,5.5c-1.4,1.4-3.5,2.1-5.5,1.8c-3.8-0.5-7.5,1-9.8,4.1
	c-1.2,1.6-3.1,2.6-5.2,2.6c-2,0-4-1-5.2-2.6c-2.3-3-6.1-4.6-9.8-4.1c-2,0.3-4-0.4-5.5-1.8s-2.1-3.5-1.8-5.5c0.5-3.8-1-7.5-4.1-9.8
	c-1.6-1.2-2.6-3.1-2.6-5.2c0-2,1-4,2.6-5.2c3-2.3,4.6-6.1,4.1-9.8c-0.3-2,0.4-4,1.8-5.5s3.5-2.1,5.5-1.8c3.8,0.5,7.5-1,9.8-4.1
	c1.2-1.6,3.1-2.6,5.2-2.6c2,0,4,1,5.2,2.6c2.3,3,6.1,4.6,9.8,4.1c2-0.3,4,0.4,5.5,1.8c1.4,1.4,2.1,3.5,1.8,5.5
	c-0.5,3.8,1,7.5,4.1,9.8C467.8-161.3,468.7-159.4,468.7-157.3z"/>
<g>
	<circle cx="-47.7" cy="47" r="7.9"/>
	<circle cx="-73.3" cy="47" r="7.9"/>
	<circle cx="-98.9" cy="47" r="7.9"/>
</g>
<g>
	<g>
		<path d="M465.7,233.5v-15.8h-6.2v-2.9h15.9v2.9h-6.2v15.8H465.7z"/>
		<path d="M478,233.5v-18.7h7.7c1.7,0,3.1,0.3,4.3,0.8s2.1,1.3,2.7,2.3s1,2.2,1,3.6c0,1.4-0.3,2.6-1,3.5c-0.6,1-1.6,1.7-2.7,2.3
			c-1.2,0.5-2.6,0.8-4.3,0.8h-5.8l1.5-1.6v7L478,233.5L478,233.5z M481.4,226.9l-1.5-1.7h5.6c1.5,0,2.7-0.3,3.5-1s1.2-1.6,1.2-2.8
			s-0.4-2.1-1.2-2.7c-0.8-0.7-1.9-1-3.5-1h-5.6l1.5-1.7V226.9z M490.2,233.5l-4.7-6.8h3.7l4.8,6.8H490.2z"/>
		<path d="M494.9,233.5l8.4-18.7h3.4l8.5,18.7h-3.7l-7.2-16.9h1.4l-7.3,16.9H494.9z M498.8,229.2l1-2.7h10.1l0.9,2.7H498.8z"/>
		<path d="M517.5,233.5v-18.7h2.9l11.7,14.5h-1.4v-14.5h3.4v18.7h-2.9L519.5,219h1.4v14.5H517.5z"/>
		<path d="M545,233.8c-1.5,0-2.9-0.2-4.2-0.6s-2.4-1-3.2-1.6l1.2-2.7c0.8,0.6,1.7,1.1,2.8,1.5s2.2,0.6,3.4,0.6c1,0,1.8-0.1,2.4-0.3
			c0.6-0.2,1.1-0.5,1.3-0.9c0.3-0.4,0.4-0.8,0.4-1.2c0-0.6-0.2-1-0.6-1.4c-0.4-0.3-0.9-0.6-1.6-0.8s-1.4-0.4-2.2-0.6
			c-0.8-0.2-1.6-0.4-2.4-0.6c-0.8-0.2-1.5-0.6-2.2-0.9s-1.2-0.9-1.6-1.5s-0.6-1.5-0.6-2.5s0.3-1.9,0.8-2.8c0.5-0.8,1.4-1.5,2.5-2
			s2.5-0.8,4.2-0.8c1.1,0,2.2,0.1,3.3,0.4s2.1,0.7,2.9,1.2l-1.1,2.7c-0.8-0.5-1.7-0.9-2.6-1.1c-0.9-0.2-1.7-0.4-2.6-0.4
			c-0.9,0-1.7,0.1-2.3,0.3s-1,0.5-1.3,0.9s-0.4,0.8-0.4,1.3c0,0.6,0.2,1,0.6,1.4c0.4,0.3,0.9,0.6,1.6,0.8c0.7,0.2,1.4,0.4,2.2,0.6
			c0.8,0.2,1.6,0.4,2.4,0.6s1.5,0.6,2.2,0.9c0.7,0.4,1.2,0.9,1.6,1.5c0.4,0.6,0.6,1.4,0.6,2.4s-0.3,1.9-0.8,2.8
			c-0.5,0.8-1.4,1.5-2.5,2S546.7,233.8,545,233.8z"/>
		<path d="M564.7,233.8c-1.4,0-2.8-0.2-4-0.7s-2.3-1.1-3.2-2s-1.6-1.9-2.1-3.1c-0.5-1.2-0.7-2.4-0.7-3.9s0.2-2.7,0.7-3.9
			s1.2-2.2,2.1-3.1s2-1.5,3.2-2s2.5-0.7,4-0.7s2.9,0.3,4.2,0.8s2.3,1.3,3.2,2.3l-2.2,2.1c-0.7-0.7-1.5-1.3-2.3-1.6
			c-0.8-0.4-1.7-0.5-2.7-0.5s-1.9,0.2-2.7,0.5s-1.5,0.8-2.1,1.4c-0.6,0.6-1.1,1.3-1.4,2.1s-0.5,1.7-0.5,2.6c0,1,0.2,1.8,0.5,2.6
			s0.8,1.5,1.4,2.1c0.6,0.6,1.3,1,2.1,1.4c0.8,0.3,1.7,0.5,2.7,0.5s1.9-0.2,2.7-0.5c0.8-0.4,1.6-0.9,2.3-1.7l2.2,2.1
			c-0.9,1-1.9,1.8-3.2,2.4S566.3,233.8,564.7,233.8z"/>
		<path d="M575.5,233.5v-18.7h7.7c1.7,0,3.1,0.3,4.3,0.8s2.1,1.3,2.7,2.3s1,2.2,1,3.6c0,1.4-0.3,2.6-1,3.5c-0.6,1-1.6,1.7-2.7,2.3
			c-1.2,0.5-2.6,0.8-4.3,0.8h-5.8l1.5-1.6v7L575.5,233.5L575.5,233.5z M579,226.9l-1.5-1.7h5.6c1.5,0,2.7-0.3,3.5-1s1.2-1.6,1.2-2.8
			s-0.4-2.1-1.2-2.7c-0.8-0.7-1.9-1-3.5-1h-5.6l1.5-1.7V226.9z M587.8,233.5l-4.7-6.8h3.7l4.8,6.8H587.8z"/>
		<path d="M595.1,233.5v-18.7h3.5v18.7H595.1z"/>
		<path d="M603.6,233.5v-18.7h7.7c1.7,0,3.1,0.3,4.3,0.8s2.1,1.3,2.7,2.3s1,2.2,1,3.6c0,1.4-0.3,2.6-1,3.5s-1.6,1.8-2.7,2.3
			s-2.6,0.8-4.3,0.8h-5.8l1.5-1.6v7L603.6,233.5L603.6,233.5z M607.1,226.9l-1.5-1.7h5.6c1.5,0,2.7-0.3,3.5-1s1.2-1.6,1.2-2.7
			s-0.4-2.1-1.2-2.7c-0.8-0.7-1.9-1-3.5-1h-5.6l1.5-1.7V226.9z"/>
		<path d="M626.8,233.5v-15.8h-6.2v-2.9h15.9v2.9h-6.2v15.8H626.8z"/>
	</g>
</g>
<g>
	<g>
		<path d="M246.2,233.5v-18.7h7.7c1.7,0,3.1,0.3,4.3,0.8s2.1,1.3,2.7,2.3s1,2.2,1,3.6c0,1.4-0.3,2.6-1,3.5s-1.6,1.8-2.7,2.3
			s-2.6,0.8-4.3,0.8h-5.8l1.5-1.6v7L246.2,233.5L246.2,233.5z M249.6,226.9l-1.5-1.7h5.6c1.5,0,2.7-0.3,3.5-1s1.2-1.6,1.2-2.7
			s-0.4-2.1-1.2-2.7c-0.8-0.7-1.9-1-3.5-1h-5.6l1.5-1.7V226.9z"/>
		<path d="M274.4,233.8c-1.4,0-2.8-0.2-4-0.7s-2.3-1.2-3.2-2c-0.9-0.9-1.6-1.9-2.1-3.1c-0.5-1.2-0.7-2.4-0.7-3.8
			c0-1.4,0.2-2.7,0.7-3.8c0.5-1.2,1.2-2.2,2.1-3.1c0.9-0.9,2-1.5,3.2-2s2.6-0.7,4-0.7s2.8,0.2,4,0.7s2.3,1.1,3.2,2
			c0.9,0.9,1.6,1.9,2.1,3.1c0.5,1.2,0.7,2.5,0.7,3.9s-0.2,2.7-0.7,3.8c-0.5,1.2-1.2,2.2-2.1,3.1c-0.9,0.9-2,1.5-3.2,2
			C277.1,233.5,275.8,233.8,274.4,233.8z M274.4,230.7c0.9,0,1.8-0.2,2.6-0.5s1.5-0.8,2.1-1.4s1-1.3,1.4-2.1s0.5-1.7,0.5-2.6
			c0-1-0.2-1.8-0.5-2.6s-0.8-1.5-1.4-2.1s-1.3-1-2.1-1.4s-1.7-0.5-2.6-0.5s-1.8,0.2-2.6,0.5s-1.5,0.8-2.1,1.4s-1.1,1.3-1.4,2.1
			s-0.5,1.7-0.5,2.6c0,0.9,0.2,1.8,0.5,2.6s0.8,1.5,1.4,2.1s1.3,1.1,2.1,1.4S273.4,230.7,274.4,230.7z"/>
		<path d="M288.1,233.5v-18.7h7.7c1.7,0,3.1,0.3,4.3,0.8s2.1,1.3,2.7,2.3s1,2.2,1,3.6c0,1.4-0.3,2.6-1,3.5c-0.6,1-1.6,1.7-2.7,2.3
			c-1.2,0.5-2.6,0.8-4.3,0.8H290l1.5-1.6v7L288.1,233.5L288.1,233.5z M291.6,226.9l-1.5-1.7h5.6c1.5,0,2.7-0.3,3.5-1
			s1.2-1.6,1.2-2.8s-0.4-2.1-1.2-2.7c-0.8-0.7-1.9-1-3.5-1h-5.6l1.5-1.7V226.9z M300.4,233.5l-4.7-6.8h3.7l4.8,6.8H300.4z"/>
		<path d="M311.5,233.5v-15.8h-6.2v-2.9h15.9v2.9H315v15.8H311.5z"/>
		<path d="M327.3,233.5h-3.5v-18.7h13.7v2.9h-10.2V233.5z M327,223.4h9.3v2.9H327V223.4z"/>
		<path d="M349.6,233.8c-1.4,0-2.8-0.2-4-0.7s-2.3-1.2-3.2-2c-0.9-0.9-1.6-1.9-2.1-3.1c-0.5-1.2-0.7-2.4-0.7-3.8
			c0-1.4,0.2-2.7,0.7-3.8c0.5-1.2,1.2-2.2,2.1-3.1c0.9-0.9,2-1.5,3.2-2s2.6-0.7,4-0.7s2.8,0.2,4,0.7s2.3,1.1,3.2,2
			c0.9,0.9,1.6,1.9,2.1,3.1c0.5,1.2,0.7,2.5,0.7,3.9s-0.2,2.7-0.7,3.8c-0.5,1.2-1.2,2.2-2.1,3.1c-0.9,0.9-2,1.5-3.2,2
			C352.4,233.5,351.1,233.8,349.6,233.8z M349.6,230.7c0.9,0,1.8-0.2,2.6-0.5s1.5-0.8,2.1-1.4s1-1.3,1.4-2.1s0.5-1.7,0.5-2.6
			c0-1-0.2-1.8-0.5-2.6s-0.8-1.5-1.4-2.1s-1.3-1-2.1-1.4s-1.7-0.5-2.6-0.5s-1.8,0.2-2.6,0.5s-1.5,0.8-2.1,1.4s-1.1,1.3-1.4,2.1
			s-0.5,1.7-0.5,2.6c0,0.9,0.2,1.8,0.5,2.6s0.8,1.5,1.4,2.1s1.3,1.1,2.1,1.4S348.7,230.7,349.6,230.7z"/>
		<path d="M363.4,233.5v-18.7h3.5v15.8h9.8v2.9H363.4z"/>
		<path d="M379.4,233.5v-18.7h3.5v18.7H379.4z"/>
		<path d="M396.7,233.8c-1.4,0-2.8-0.2-4-0.7s-2.3-1.2-3.2-2c-0.9-0.9-1.6-1.9-2.1-3.1c-0.5-1.2-0.7-2.4-0.7-3.8
			c0-1.4,0.2-2.7,0.7-3.8c0.5-1.2,1.2-2.2,2.1-3.1c0.9-0.9,2-1.5,3.2-2s2.6-0.7,4-0.7s2.8,0.2,4,0.7s2.3,1.1,3.2,2
			c0.9,0.9,1.6,1.9,2.1,3.1c0.5,1.2,0.7,2.5,0.7,3.9s-0.2,2.7-0.7,3.8c-0.5,1.2-1.2,2.2-2.1,3.1c-0.9,0.9-2,1.5-3.2,2
			C399.5,233.5,398.1,233.8,396.7,233.8z M396.7,230.7c0.9,0,1.8-0.2,2.6-0.5s1.5-0.8,2.1-1.4s1-1.3,1.4-2.1s0.5-1.7,0.5-2.6
			c0-1-0.2-1.8-0.5-2.6s-0.8-1.5-1.4-2.1s-1.3-1-2.1-1.4s-1.7-0.5-2.6-0.5s-1.8,0.2-2.6,0.5s-1.5,0.8-2.1,1.4s-1.1,1.3-1.4,2.1
			s-0.5,1.7-0.5,2.6c0,0.9,0.2,1.8,0.5,2.6s0.8,1.5,1.4,2.1s1.3,1.1,2.1,1.4S395.7,230.7,396.7,230.7z"/>
	</g>
</g>
<line class="st1" x1="532.1" y1="126.9" x2="532.1" y2="146.5"/>
<path d="M532.1,134.7L523,157c-0.9,2.2,0.7,4.5,3,4.5h12.3c2.3,0,3.9-2.4,3-4.5L532.1,134.7z"/>
<line class="st0" x1="-103.4" y1="148.9" x2="-64.8" y2="148.9"/>
<path class="st0" d="M371.1,33.8v132.5c0,6.7-4.7,12.1-10.4,12.1h-95.6c-5.8,0-10.4-5.4-10.4-12.1V33.8c0-6.7,4.7-12.1,10.4-12.1
	h95.6C366.5,21.7,371.1,27.1,371.1,33.8z"/>
<line class="st0" x1="395.8" y1="162.2" x2="395.8" y2="134.8"/>
<line class="st0" x1="395.8" y1="113.7" x2="395.8" y2="86.3"/>
<line class="st0" x1="395.8" y1="65.1" x2="395.8" y2="37.7"/>
<circle cx="312.9" cy="81.5" r="25.4"/>
<path d="M351.3,133.5c0,3.3-2.7,5.9-5.9,5.9h-65c-3.3,0-5.9-2.7-5.9-5.9c0-21.2,17.2-38.4,38.4-38.4
	C334.1,95.1,351.3,112.3,351.3,133.5z"/>
<path class="st0" d="M-39.2,89.8v76.5c0,6.7-5.4,12.1-12.1,12.1h-111c-6.7,0-12.1-5.4-12.1-12.1V33.8c0-6.7,5.4-12.1,12.1-12.1h8.5
	h92.1"/>
<g>
	<g>
		<path d="M43,233.5v-18.7h7.7c1.7,0,3.1,0.3,4.3,0.8s2.1,1.3,2.7,2.3s1,2.2,1,3.6c0,1.4-0.3,2.6-1,3.5c-0.6,1-1.6,1.7-2.7,2.3
			c-1.2,0.5-2.6,0.8-4.3,0.8h-5.8l1.5-1.6v7L43,233.5L43,233.5z M46.5,226.9l-1.5-1.7h5.6c1.5,0,2.7-0.3,3.5-1s1.2-1.6,1.2-2.8
			s-0.4-2.1-1.2-2.7c-0.8-0.7-1.9-1-3.5-1H45l1.5-1.7V226.9z M55.3,233.5l-4.7-6.8h3.7l4.8,6.8H55.3z"/>
		<path d="M66,230.6h10.6v2.9h-14v-18.7h13.7v2.9H66V230.6z M65.8,222.6h9.3v2.9h-9.3V222.6z"/>
		<path d="M86.3,233.8c-1.5,0-2.9-0.2-4.2-0.6c-1.3-0.4-2.4-1-3.2-1.6l1.2-2.7c0.8,0.6,1.7,1.1,2.8,1.5s2.2,0.6,3.4,0.6
			c1,0,1.8-0.1,2.4-0.3s1.1-0.5,1.3-0.9c0.3-0.4,0.4-0.8,0.4-1.2c0-0.6-0.2-1-0.6-1.4c-0.4-0.3-0.9-0.6-1.6-0.8s-1.4-0.4-2.2-0.6
			c-0.8-0.2-1.6-0.4-2.4-0.6c-0.8-0.2-1.5-0.6-2.2-0.9s-1.2-0.9-1.6-1.5c-0.4-0.6-0.6-1.5-0.6-2.5s0.3-1.9,0.8-2.8
			c0.5-0.8,1.4-1.5,2.5-2c1.1-0.5,2.5-0.8,4.2-0.8c1.1,0,2.2,0.1,3.3,0.4s2.1,0.7,2.9,1.2l-1.1,2.7c-0.8-0.5-1.7-0.9-2.6-1.1
			c-0.9-0.2-1.7-0.4-2.6-0.4s-1.7,0.1-2.3,0.3s-1,0.5-1.3,0.9s-0.4,0.8-0.4,1.3c0,0.6,0.2,1,0.6,1.4c0.4,0.3,0.9,0.6,1.6,0.8
			s1.4,0.4,2.2,0.6c0.8,0.2,1.6,0.4,2.4,0.6s1.5,0.6,2.2,0.9c0.7,0.4,1.2,0.9,1.6,1.5s0.6,1.4,0.6,2.4s-0.3,1.9-0.8,2.8
			c-0.5,0.8-1.4,1.5-2.5,2C89.5,233.5,88.1,233.8,86.3,233.8z"/>
		<path d="M105.3,233.8c-2.6,0-4.6-0.7-6-2.2c-1.5-1.4-2.2-3.5-2.2-6.3v-10.5h3.5v10.4c0,1.9,0.4,3.3,1.2,4.2s2,1.3,3.5,1.3
			s2.7-0.4,3.5-1.3c0.8-0.9,1.2-2.3,1.2-4.2v-10.4h3.4v10.5c0,2.7-0.7,4.8-2.2,6.3C110,233.1,108,233.8,105.3,233.8z"/>
		<path d="M118.5,233.5v-18.7h2.9l8.2,13.7h-1.5l8.1-13.7h2.9l0.1,18.7h-3.3v-13.6h0.7l-6.8,11.5h-1.6l-7-11.5h0.8v13.6H118.5z"/>
		<path d="M147.6,230.6h10.6v2.9h-14v-18.7h13.7v2.9h-10.2L147.6,230.6L147.6,230.6L147.6,230.6z M147.2,222.6h9.3v2.9h-9.3V222.6z"
			/>
	</g>
</g>
<circle cx="99.1" cy="43.3" r="28.6"/>
<line class="st0" x1="58.3" y1="151.9" x2="114.8" y2="151.9"/>
<line class="st0" x1="58.3" y1="127.9" x2="139.9" y2="127.9"/>
<line class="st0" x1="-172.8" y1="70.3" x2="-61.3" y2="70.3"/>
<path d="M142.3,101.7c0,3.7-3,6.7-6.7,6.7h-73c-3.7,0-6.7-3-6.7-6.7c0-23.8,19.4-43.2,43.2-43.2C123,58.6,142.3,77.9,142.3,101.7z"
	/>
<path class="st0" d="M146.1,21.7h8.5c6.7,0,12.1,5.4,12.1,12.1v132.5c0,6.7-5.4,12.1-12.1,12.1h-111c-6.7,0-12.1-5.4-12.1-12.1V33.8
	c0-6.7,5.4-12.1,12.1-12.1h8.5"/>
<path class="st0" d="M218.4,351.8h78.1c10.2,0,18.4,8.2,18.4,18.4v109.5c0,10.2-8.2,18.4-18.4,18.4h-78.1
	c-10.2,0-18.4-8.2-18.4-18.4V370.2C200,360,208.2,351.8,218.4,351.8z"/>
<path class="st0" d="M247.3,323.9h78.1c10.2,0,18.4,8.2,18.4,18.4v109.5c0,10.2-8.2,18.4-18.4,18.4h-78.1
	c-10.2,0-18.4-8.2-18.4-18.4V342.3C228.9,332.1,237.2,323.9,247.3,323.9z"/>
<polyline class="st2" points="-147.6,100 -117.4,124.4 -147.6,148.8 "/>
<g>
	<g>
		<path d="M-188.8,230.2h10.2v2.8h-13.5v-18h13.1v2.8h-9.8C-188.8,217.8-188.8,230.2-188.8,230.2z M-188.9,222.5h8.9v2.8h-8.9V222.5
			z"/>
		<path d="M-176.9,233l7.6-10.5v2.5l-7.3-10h3.8l5.4,7.4h-1.6l5.3-7.5h3.6l-7.2,9.9v-2.4l7.6,10.5h-3.8l-5.7-7.9h1.5l-5.6,7.9h-3.6
			V233z"/>
		<path d="M-156.9,233v-18h7.4c1.6,0,3,0.3,4.1,0.8c1.1,0.5,2,1.2,2.6,2.2c0.6,1,0.9,2.1,0.9,3.4c0,1.3-0.3,2.5-0.9,3.4
			c-0.6,1-1.5,1.7-2.6,2.2c-1.1,0.5-2.5,0.8-4.1,0.8h-5.5l1.5-1.5v6.7L-156.9,233L-156.9,233z M-153.6,226.6l-1.5-1.6h5.4
			c1.5,0,2.6-0.3,3.3-0.9s1.1-1.5,1.1-2.6s-0.4-2-1.1-2.6s-1.9-0.9-3.3-0.9h-5.4l1.5-1.6V226.6z"/>
		<path d="M-134.9,230.2h10.1v2.8h-13.5v-18h13.1v2.8h-9.8v12.4H-134.9z M-135.2,222.5h8.9v2.8h-8.9V222.5z"/>
		<path d="M-121,233v-18h7.4c1.6,0,3,0.3,4.1,0.8s2,1.2,2.6,2.2s0.9,2.1,0.9,3.4c0,1.3-0.3,2.5-0.9,3.4s-1.5,1.7-2.6,2.2
			s-2.5,0.8-4.1,0.8h-5.5l1.5-1.5v6.7L-121,233L-121,233z M-117.8,226.6l-1.5-1.6h5.4c1.5,0,2.6-0.3,3.3-1c0.7-0.6,1.1-1.5,1.1-2.6
			s-0.4-2-1.1-2.6s-1.9-0.9-3.3-0.9h-5.4l1.5-1.6V226.6z M-109.2,233l-4.6-6.5h3.6l4.6,6.5H-109.2z"/>
		<path d="M-102.2,233v-18h3.3v18H-102.2z"/>
		<path d="M-90.8,230.2h10.2v2.8h-13.5v-18H-81v2.8h-9.8C-90.8,217.8-90.8,230.2-90.8,230.2z M-91,222.5h8.9v2.8H-91V222.5z"/>
		<path d="M-76.8,233v-18h2.8l11.3,13.9h-1.4V215h3.3v18h-2.8l-11.2-13.9h1.4V233H-76.8z"/>
		<path d="M-47.7,233.2c-1.4,0-2.7-0.2-3.8-0.7c-1.2-0.5-2.2-1.1-3-1.9c-0.9-0.8-1.5-1.8-2-2.9c-0.5-1.1-0.7-2.3-0.7-3.7
			s0.2-2.6,0.7-3.7c0.5-1.1,1.2-2.1,2-2.9s1.9-1.5,3.1-1.9c1.2-0.5,2.4-0.7,3.8-0.7c1.5,0,2.8,0.3,4,0.8s2.2,1.3,3.1,2.2l-2.2,2
			c-0.7-0.7-1.4-1.2-2.2-1.6c-0.8-0.4-1.7-0.5-2.6-0.5c-0.9,0-1.8,0.2-2.6,0.5s-1.5,0.7-2,1.3c-0.6,0.6-1,1.2-1.3,2
			s-0.5,1.6-0.5,2.5s0.2,1.8,0.5,2.5c0.3,0.8,0.8,1.4,1.3,2c0.6,0.6,1.3,1,2,1.3c0.8,0.3,1.6,0.5,2.6,0.5c0.9,0,1.8-0.2,2.6-0.5
			s1.5-0.9,2.2-1.6l2.2,2c-0.8,1-1.9,1.7-3.1,2.3C-44.8,233-46.2,233.2-47.7,233.2z"/>
		<path d="M-34,230.2h10.1v2.8h-13.5v-18h13.1v2.8H-34L-34,230.2L-34,230.2z M-34.2,222.5h8.9v2.8h-8.9V222.5z"/>
	</g>
</g>
<image style="overflow:visible;" width="384" height="390" xlink:href="9BAE3637.jpg"  transform="matrix(0.2702 -0.2702 0.2702 0.2702 -468.1177 411.6588)">
</image>
<circle class="st3" cx="-357.9" cy="386" r="10.9"/>
<path d="M-150.2,466.6c-8.8-4.7-7.8-14.4-7.8-14.4c-8.6,12.9,4.8,20.1,7.8,27c3-6.9,16.4-14.1,7.8-27
	C-142.4,452.2-141.5,461.9-150.2,466.6z"/>
<path class="st4" d="M-381.3,414.1c-19.3,16.5-8.1,34.4-5.6,42.5c0,0,6.2-11.1,14.1-15.3C-364.9,437-381.3,414.1-381.3,414.1z"/>
<path class="st5" d="M-357.9,344.1c-34.3,22.5-29.1,71.4-10.9,105.5h10.9V344.1z"/>
<path class="st6" d="M-365.7,455.9c-8.6,12.9,4.8,20.1,7.8,27v-12.6C-366.6,465.6-365.7,455.9-365.7,455.9z"/>
<path d="M-126.8,410.4C-126.8,410.4-126.8,410.4-126.8,410.4c4.9-26,0.4-52.8-21.1-68.4c-1.4-1-3.2-1-4.6,0
	c-21.5,15.6-26,42.4-21.1,68.4c0,0,0,0,0,0c-17,14.5-10.4,30.2-6.8,39.2c0.5,1.3,2.3,1.5,3,0.3c2.4-3.6,6.9-9.6,12.2-12.4
	c0.9,2.1,1.9,4.2,2.9,6.2c0.7,1.3,2,2.2,3.5,2.2l8.5,0l8.5,0c1.5,0,2.8-0.8,3.5-2.2c1-2,2-4.1,2.9-6.2c5.3,2.9,9.8,8.8,12.2,12.4
	c0.8,1.2,2.5,1,3-0.3C-116.5,440.6-109.8,424.9-126.8,410.4z M-141.4,388.6c-4.4,6.1-13.4,6.1-17.7,0c-2.7-3.7-2.7-8.8,0-12.5
	c4.4-6.1,13.4-6.1,17.7,0C-138.7,379.7-138.7,384.9-141.4,388.6z"/>
<path d="M9.2,473c-10.8-5.9-9.7-17.8-9.7-17.8c-10.6,16,5.9,24.9,9.7,33.4c3.7-8.5,20.3-17.5,9.7-33.4C18.9,455.2,20,467.1,9.2,473z
	"/>
<path d="M32.6,410.4C32.6,410.4,32.6,410.4,32.6,410.4c4.9-26,0.4-52.8-21.1-68.4c-1.4-1-3.2-1-4.6,0c-21.5,15.6-26,42.4-21.1,68.4
	c0,0,0,0,0,0c-17,14.5-10.4,30.2-6.8,39.2c0.5,1.3,2.3,1.5,3,0.3c2.4-3.6,6.9-9.6,12.2-12.4c0.9,2.1,1.9,4.2,2.9,6.2
	c0.7,1.3,2,2.2,3.5,2.2h8.5h8.5c1.5,0,2.8-0.8,3.5-2.2c1-2,2-4.1,2.9-6.2c5.3,2.9,9.8,8.8,12.2,12.4c0.8,1.2,2.5,1,3-0.3
	C43,440.6,49.7,424.9,32.6,410.4z M18.1,388.6c-4.4,6.1-13.4,6.1-17.7,0c-2.7-3.7-2.7-8.8,0-12.5c4.4-6.1,13.4-6.1,17.7,0
	C20.7,379.7,20.7,384.9,18.1,388.6z"/>
</svg>
