<?xml version="1.0" encoding="utf-8"?>
<!-- Generator: Adobe Illustrator 26.1.0, SVG Export Plug-In . SVG Version: 6.00 Build 0)  -->
<svg version="1.1" id="Layer_1" xmlns="http://www.w3.org/2000/svg" xmlns:xlink="http://www.w3.org/1999/xlink" x="0px" y="0px"
	 viewBox="0 0 200 200" style="enable-background:new 0 0 200 200;" xml:space="preserve">
<style type="text/css">
	.st0{fill:none;stroke:#000000;stroke-width:13;stroke-linecap:round;stroke-linejoin:round;}
	.st1{fill:none;stroke:#000000;stroke-width:7;stroke-linejoin:round;}
</style>
<image style="overflow:visible;" width="199" height="262" xlink:href="9BAE3634.jpg"  transform="matrix(0.4103 0 0 0.4103 288.0538 -198.9912)">
</image>
<image style="overflow:visible;" width="199" height="262" xlink:href="9BAE3633.jpg"  transform="matrix(0.4103 0 0 0.4103 176.0069 -198.9912)">
</image>
<path class="st0" d="M481,46.6V33.8c0-6.7,5.4-12.1,12.1-12.1h110.9c6.7,0,12.1,5.4,12.1,12.1v12.9"/>
<path class="st0" d="M616.2,114.5v51.7c0,6.7-5.4,12.1-12.1,12.1H493.2c-6.7,0-12.1-5.4-12.1-12.1v-51.7"/>
<path class="st0" d="M629.8,72.7"/>
<path class="st0" d="M548.6,39.1"/>
<path d="M631.6,83.7l-20.8,13.4c0,0-0.1-0.1-0.1-0.1c-17.4-17.9-39.4-27.7-62-27.7c-22.6,0-44.7,9.8-62,27.7c0,0-0.1,0.1-0.1,0.1
	l-20.8-13.4c-2-1.3-3.1-3.6-2.9-5.9c0.2-2.4,1.7-4.4,3.9-5.3l79.5-32.8c1.6-0.6,3.3-0.6,4.9,0l79.5,32.8c2.2,0.9,3.7,3,3.9,5.3
	C634.7,80.1,633.5,82.4,631.6,83.7z"/>
<path d="M591.7,102.4v33.3c0,2.5-1.3,4.8-3.3,5.8c-0.8,0.4-1.6,0.6-2.4,0.6c-1.3,0-2.6-0.5-3.7-1.5c-9.4-9-21.4-13.9-33.7-13.9
	s-24.3,5-33.7,13.9c-1.7,1.6-4.1,2-6.1,0.9c-2-1-3.3-3.3-3.3-5.8v-33.3c0-1.9,0.7-3.7,2-4.9c11.5-10.9,26.1-17,41-17
	c15,0,29.5,6,41,17C590.9,98.7,591.7,100.5,591.7,102.4z"/>
<path d="M362.3-157.3c0,2-1,4-2.6,5.2c-3,2.3-4.6,6.1-4.1,9.8c0.3,2-0.4,4-1.8,5.5c-1.4,1.4-3.5,2.1-5.5,1.8c-3.8-0.5-7.5,1-9.8,4.1
	c-1.2,1.6-3.1,2.6-5.2,2.6c-2,0-4-1-5.2-2.6c-2.3-3-6.1-4.6-9.8-4.1c-2,0.3-4-0.4-5.5-1.8s-2.1-3.5-1.8-5.5c0.5-3.8-1-7.5-4.1-9.8
	c-1.6-1.2-2.6-3.1-2.6-5.2c0-2,1-4,2.6-5.2c3-2.3,4.6-6.1,4.1-9.8c-0.3-2,0.4-4,1.8-5.5s3.5-2.1,5.5-1.8c3.8,0.5,7.5-1,9.8-4.1
	c1.2-1.6,3.1-2.6,5.2-2.6c2,0,4,1,5.2,2.6c2.3,3,6.1,4.6,9.8,4.1c2-0.3,4,0.4,5.5,1.8c1.4,1.4,2.1,3.5,1.8,5.5
	c-0.5,3.8,1,7.5,4.1,9.8C361.3-161.3,362.3-159.4,362.3-157.3z"/>
<path d="M362.3-157.3c0,2-1,4-2.6,5.2c-3,2.3-4.6,6.1-4.1,9.8c0.3,2-0.4,4-1.8,5.5c-1.4,1.4-3.5,2.1-5.5,1.8c-3.8-0.5-7.5,1-9.8,4.1
	c-1.2,1.6-3.1,2.6-5.2,2.6c-2,0-4-1-5.2-2.6c-2.3-3-6.1-4.6-9.8-4.1c-2,0.3-4-0.4-5.5-1.8s-2.1-3.5-1.8-5.5c0.5-3.8-1-7.5-4.1-9.8
	c-1.6-1.2-2.6-3.1-2.6-5.2c0-2,1-4,2.6-5.2c3-2.3,4.6-6.1,4.1-9.8c-0.3-2,0.4-4,1.8-5.5s3.5-2.1,5.5-1.8c3.8,0.5,7.5-1,9.8-4.1
	c1.2-1.6,3.1-2.6,5.2-2.6c2,0,4,1,5.2,2.6c2.3,3,6.1,4.6,9.8,4.1c2-0.3,4,0.4,5.5,1.8c1.4,1.4,2.1,3.5,1.8,5.5
	c-0.5,3.8,1,7.5,4.1,9.8C361.3-161.3,362.3-159.4,362.3-157.3z"/>
<path d="M347.8-142.9v38.6c0,2.4-2.7,3.7-4.6,2.3l-9.9-7.2l-9.9,7.2c-1.9,1.4-4.6,0-4.6-2.3v-38.6H347.8z"/>
<path d="M454.3-131.4v33.9c0,2.4-2.7,3.7-4.6,2.3l-9.9-7.2l-9.9,7.2c-1.9,1.4-4.6,0-4.6-2.3v-33.9c3.3,0.3,6.4,2,8.5,4.8
	c1.4,1.9,3.7,3,6,3c2.4,0,4.6-1.1,6-3C447.8-129.4,450.9-131.1,454.3-131.4z"/>
<path d="M468.7-157.3c0,2-1,4-2.6,5.2c-3,2.3-4.6,6.1-4.1,9.8c0.3,2-0.4,4-1.8,5.5c-1.4,1.4-3.5,2.1-5.5,1.8c-3.8-0.5-7.5,1-9.8,4.1
	c-1.2,1.6-3.1,2.6-5.2,2.6c-2,0-4-1-5.2-2.6c-2.3-3-6.1-4.6-9.8-4.1c-2,0.3-4-0.4-5.5-1.8s-2.1-3.5-1.8-5.5c0.5-3.8-1-7.5-4.1-9.8
	c-1.6-1.2-2.6-3.1-2.6-5.2c0-2,1-4,2.6-5.2c3-2.3,4.6-6.1,4.1-9.8c-0.3-2,0.4-4,1.8-5.5s3.5-2.1,5.5-1.8c3.8,0.5,7.5-1,9.8-4.1
	c1.2-1.6,3.1-2.6,5.2-2.6c2,0,4,1,5.2,2.6c2.3,3,6.1,4.6,9.8,4.1c2-0.3,4,0.4,5.5,1.8c1.4,1.4,2.1,3.5,1.8,5.5
	c-0.5,3.8,1,7.5,4.1,9.8C467.8-161.3,468.7-159.4,468.7-157.3z"/>
<circle cx="515.5" cy="-157.3" r="29"/>
<g>
	<g>
		<path d="M465.7,233.5v-15.8h-6.2v-2.9h15.9v2.9h-6.2v15.8H465.7z"/>
		<path d="M478,233.5v-18.7h7.7c1.7,0,3.1,0.3,4.3,0.8s2.1,1.3,2.7,2.3s1,2.2,1,3.6c0,1.4-0.3,2.6-1,3.5c-0.6,1-1.6,1.7-2.7,2.3
			c-1.2,0.5-2.6,0.8-4.3,0.8h-5.8l1.5-1.6v7H478z M481.4,226.9l-1.5-1.7h5.6c1.5,0,2.7-0.3,3.5-1c0.8-0.7,1.2-1.6,1.2-2.8
			s-0.4-2.1-1.2-2.7c-0.8-0.7-1.9-1-3.5-1h-5.6l1.5-1.7V226.9z M490.2,233.5l-4.7-6.8h3.7l4.8,6.8H490.2z"/>
		<path d="M494.9,233.5l8.4-18.7h3.4l8.5,18.7h-3.7l-7.2-16.9h1.4l-7.3,16.9H494.9z M498.8,229.2l1-2.7h10.1l0.9,2.7H498.8z"/>
		<path d="M517.5,233.5v-18.7h2.9l11.7,14.5h-1.4v-14.5h3.4v18.7h-2.9l-11.7-14.5h1.4v14.5H517.5z"/>
		<path d="M545,233.8c-1.5,0-2.9-0.2-4.2-0.6s-2.4-1-3.2-1.6l1.2-2.7c0.8,0.6,1.7,1.1,2.8,1.5s2.2,0.6,3.4,0.6c1,0,1.8-0.1,2.4-0.3
			c0.6-0.2,1.1-0.5,1.3-0.9c0.3-0.4,0.4-0.8,0.4-1.2c0-0.6-0.2-1-0.6-1.4c-0.4-0.3-0.9-0.6-1.6-0.8s-1.4-0.4-2.2-0.6
			c-0.8-0.2-1.6-0.4-2.4-0.6c-0.8-0.2-1.5-0.6-2.2-0.9s-1.2-0.9-1.6-1.5s-0.6-1.5-0.6-2.5c0-1,0.3-1.9,0.8-2.8
			c0.5-0.8,1.4-1.5,2.5-2c1.1-0.5,2.5-0.8,4.2-0.8c1.1,0,2.2,0.1,3.3,0.4s2.1,0.7,2.9,1.2l-1.1,2.7c-0.8-0.5-1.7-0.9-2.6-1.1
			c-0.9-0.2-1.7-0.4-2.6-0.4c-0.9,0-1.7,0.1-2.3,0.3c-0.6,0.2-1,0.5-1.3,0.9s-0.4,0.8-0.4,1.3c0,0.6,0.2,1,0.6,1.4
			c0.4,0.3,0.9,0.6,1.6,0.8c0.7,0.2,1.4,0.4,2.2,0.6c0.8,0.2,1.6,0.4,2.4,0.6s1.5,0.6,2.2,0.9c0.7,0.4,1.2,0.9,1.6,1.5
			c0.4,0.6,0.6,1.4,0.6,2.4c0,1-0.3,1.9-0.8,2.8c-0.5,0.8-1.4,1.5-2.5,2S546.7,233.8,545,233.8z"/>
		<path d="M564.7,233.8c-1.4,0-2.8-0.2-4-0.7c-1.2-0.5-2.3-1.1-3.2-2c-0.9-0.9-1.6-1.9-2.1-3.1c-0.5-1.2-0.7-2.4-0.7-3.9
			s0.2-2.7,0.7-3.9c0.5-1.2,1.2-2.2,2.1-3.1s2-1.5,3.2-2c1.2-0.5,2.5-0.7,4-0.7c1.5,0,2.9,0.3,4.2,0.8s2.3,1.3,3.2,2.3l-2.2,2.1
			c-0.7-0.7-1.5-1.3-2.3-1.6c-0.8-0.4-1.7-0.5-2.7-0.5c-1,0-1.9,0.2-2.7,0.5c-0.8,0.3-1.5,0.8-2.1,1.4c-0.6,0.6-1.1,1.3-1.4,2.1
			s-0.5,1.7-0.5,2.6c0,1,0.2,1.8,0.5,2.6s0.8,1.5,1.4,2.1c0.6,0.6,1.3,1,2.1,1.4c0.8,0.3,1.7,0.5,2.7,0.5c1,0,1.9-0.2,2.7-0.5
			c0.8-0.4,1.6-0.9,2.3-1.7l2.2,2.1c-0.9,1-1.9,1.8-3.2,2.4S566.3,233.8,564.7,233.8z"/>
		<path d="M575.5,233.5v-18.7h7.7c1.7,0,3.1,0.3,4.3,0.8s2.1,1.3,2.7,2.3s1,2.2,1,3.6c0,1.4-0.3,2.6-1,3.5c-0.6,1-1.6,1.7-2.7,2.3
			c-1.2,0.5-2.6,0.8-4.3,0.8h-5.8l1.5-1.6v7H575.5z M579,226.9l-1.5-1.7h5.6c1.5,0,2.7-0.3,3.5-1c0.8-0.7,1.2-1.6,1.2-2.8
			s-0.4-2.1-1.2-2.7c-0.8-0.7-1.9-1-3.5-1h-5.6l1.5-1.7V226.9z M587.8,233.5l-4.7-6.8h3.7l4.8,6.8H587.8z"/>
		<path d="M595.1,233.5v-18.7h3.5v18.7H595.1z"/>
		<path d="M603.6,233.5v-18.7h7.7c1.7,0,3.1,0.3,4.3,0.8s2.1,1.3,2.7,2.3s1,2.2,1,3.6c0,1.4-0.3,2.6-1,3.5s-1.6,1.8-2.7,2.3
			s-2.6,0.8-4.3,0.8h-5.8l1.5-1.6v7H603.6z M607.1,226.9l-1.5-1.7h5.6c1.5,0,2.7-0.3,3.5-1c0.8-0.7,1.2-1.6,1.2-2.7
			s-0.4-2.1-1.2-2.7c-0.8-0.7-1.9-1-3.5-1h-5.6l1.5-1.7V226.9z"/>
		<path d="M626.8,233.5v-15.8h-6.2v-2.9h15.9v2.9h-6.2v15.8H626.8z"/>
	</g>
</g>
<g>
	<g>
		<path d="M246.2,233.5v-18.7h7.7c1.7,0,3.1,0.3,4.3,0.8s2.1,1.3,2.7,2.3s1,2.2,1,3.6c0,1.4-0.3,2.6-1,3.5s-1.6,1.8-2.7,2.3
			s-2.6,0.8-4.3,0.8h-5.8l1.5-1.6v7H246.2z M249.6,226.9l-1.5-1.7h5.6c1.5,0,2.7-0.3,3.5-1c0.8-0.7,1.2-1.6,1.2-2.7
			s-0.4-2.1-1.2-2.7c-0.8-0.7-1.9-1-3.5-1h-5.6l1.5-1.7V226.9z"/>
		<path d="M274.4,233.8c-1.4,0-2.8-0.2-4-0.7s-2.3-1.2-3.2-2c-0.9-0.9-1.6-1.9-2.1-3.1c-0.5-1.2-0.7-2.4-0.7-3.8
			c0-1.4,0.2-2.7,0.7-3.8c0.5-1.2,1.2-2.2,2.1-3.1c0.9-0.9,2-1.5,3.2-2c1.2-0.5,2.6-0.7,4-0.7c1.4,0,2.8,0.2,4,0.7
			c1.2,0.5,2.3,1.1,3.2,2c0.9,0.9,1.6,1.9,2.1,3.1c0.5,1.2,0.7,2.5,0.7,3.9s-0.2,2.7-0.7,3.8c-0.5,1.2-1.2,2.2-2.1,3.1
			c-0.9,0.9-2,1.5-3.2,2C277.1,233.5,275.8,233.8,274.4,233.8z M274.4,230.7c0.9,0,1.8-0.2,2.6-0.5s1.5-0.8,2.1-1.4s1-1.3,1.4-2.1
			s0.5-1.7,0.5-2.6c0-1-0.2-1.8-0.5-2.6s-0.8-1.5-1.4-2.1c-0.6-0.6-1.3-1-2.1-1.4s-1.7-0.5-2.6-0.5s-1.8,0.2-2.6,0.5
			s-1.5,0.8-2.1,1.4s-1.1,1.3-1.4,2.1c-0.3,0.8-0.5,1.7-0.5,2.6c0,0.9,0.2,1.8,0.5,2.6s0.8,1.5,1.4,2.1c0.6,0.6,1.3,1.1,2.1,1.4
			S273.4,230.7,274.4,230.7z"/>
		<path d="M288.1,233.5v-18.7h7.7c1.7,0,3.1,0.3,4.3,0.8s2.1,1.3,2.7,2.3s1,2.2,1,3.6c0,1.4-0.3,2.6-1,3.5c-0.6,1-1.6,1.7-2.7,2.3
			c-1.2,0.5-2.6,0.8-4.3,0.8h-5.8l1.5-1.6v7H288.1z M291.6,226.9l-1.5-1.7h5.6c1.5,0,2.7-0.3,3.5-1c0.8-0.7,1.2-1.6,1.2-2.8
			s-0.4-2.1-1.2-2.7c-0.8-0.7-1.9-1-3.5-1h-5.6l1.5-1.7V226.9z M300.4,233.5l-4.7-6.8h3.7l4.8,6.8H300.4z"/>
		<path d="M311.5,233.5v-15.8h-6.2v-2.9h15.9v2.9H315v15.8H311.5z"/>
		<path d="M327.3,233.5h-3.5v-18.7h13.7v2.9h-10.2V233.5z M327,223.4h9.3v2.9H327V223.4z"/>
		<path d="M349.6,233.8c-1.4,0-2.8-0.2-4-0.7s-2.3-1.2-3.2-2c-0.9-0.9-1.6-1.9-2.1-3.1c-0.5-1.2-0.7-2.4-0.7-3.8
			c0-1.4,0.2-2.7,0.7-3.8c0.5-1.2,1.2-2.2,2.1-3.1c0.9-0.9,2-1.5,3.2-2c1.2-0.5,2.6-0.7,4-0.7c1.4,0,2.8,0.2,4,0.7
			c1.2,0.5,2.3,1.1,3.2,2c0.9,0.9,1.6,1.9,2.1,3.1c0.5,1.2,0.7,2.5,0.7,3.9s-0.2,2.7-0.7,3.8c-0.5,1.2-1.2,2.2-2.1,3.1
			c-0.9,0.9-2,1.5-3.2,2C352.4,233.5,351.1,233.8,349.6,233.8z M349.6,230.7c0.9,0,1.8-0.2,2.6-0.5s1.5-0.8,2.1-1.4s1-1.3,1.4-2.1
			s0.5-1.7,0.5-2.6c0-1-0.2-1.8-0.5-2.6s-0.8-1.5-1.4-2.1c-0.6-0.6-1.3-1-2.1-1.4s-1.7-0.5-2.6-0.5s-1.8,0.2-2.6,0.5
			s-1.5,0.8-2.1,1.4s-1.1,1.3-1.4,2.1c-0.3,0.8-0.5,1.7-0.5,2.6c0,0.9,0.2,1.8,0.5,2.6s0.8,1.5,1.4,2.1c0.6,0.6,1.3,1.1,2.1,1.4
			S348.7,230.7,349.6,230.7z"/>
		<path d="M363.4,233.5v-18.7h3.5v15.8h9.8v2.9H363.4z"/>
		<path d="M379.4,233.5v-18.7h3.5v18.7H379.4z"/>
		<path d="M396.7,233.8c-1.4,0-2.8-0.2-4-0.7s-2.3-1.2-3.2-2c-0.9-0.9-1.6-1.9-2.1-3.1c-0.5-1.2-0.7-2.4-0.7-3.8
			c0-1.4,0.2-2.7,0.7-3.8c0.5-1.2,1.2-2.2,2.1-3.1c0.9-0.9,2-1.5,3.2-2c1.2-0.5,2.6-0.7,4-0.7c1.4,0,2.8,0.2,4,0.7
			c1.2,0.5,2.3,1.1,3.2,2c0.9,0.9,1.6,1.9,2.1,3.1c0.5,1.2,0.7,2.5,0.7,3.9s-0.2,2.7-0.7,3.8c-0.5,1.2-1.2,2.2-2.1,3.1
			c-0.9,0.9-2,1.5-3.2,2C399.5,233.5,398.1,233.8,396.7,233.8z M396.7,230.7c0.9,0,1.8-0.2,2.6-0.5s1.5-0.8,2.1-1.4s1-1.3,1.4-2.1
			s0.5-1.7,0.5-2.6c0-1-0.2-1.8-0.5-2.6s-0.8-1.5-1.4-2.1c-0.6-0.6-1.3-1-2.1-1.4s-1.7-0.5-2.6-0.5s-1.8,0.2-2.6,0.5
			s-1.5,0.8-2.1,1.4s-1.1,1.3-1.4,2.1c-0.3,0.8-0.5,1.7-0.5,2.6c0,0.9,0.2,1.8,0.5,2.6s0.8,1.5,1.4,2.1c0.6,0.6,1.3,1.1,2.1,1.4
			S395.7,230.7,396.7,230.7z"/>
	</g>
</g>
<g>
	<g>
		<path d="M43.8,233.5v-18.7h7.7c1.7,0,3.1,0.3,4.3,0.8s2.1,1.3,2.7,2.3s1,2.2,1,3.6c0,1.4-0.3,2.6-1,3.5c-0.6,1-1.6,1.7-2.7,2.3
			c-1.2,0.5-2.6,0.8-4.3,0.8h-5.8l1.5-1.6v7H43.8z M47.3,226.9l-1.5-1.7h5.6c1.5,0,2.7-0.3,3.5-1c0.8-0.7,1.2-1.6,1.2-2.8
			s-0.4-2.1-1.2-2.7c-0.8-0.7-1.9-1-3.5-1h-5.6l1.5-1.7V226.9z M56.1,233.5l-4.7-6.8h3.7l4.8,6.8H56.1z"/>
		<path d="M66.9,230.6h10.6v2.9h-14v-18.7h13.7v2.9H66.9V230.6z M66.6,222.6h9.3v2.9h-9.3V222.6z"/>
		<path d="M87.2,233.8c-1.5,0-2.9-0.2-4.2-0.6s-2.4-1-3.2-1.6l1.2-2.7c0.8,0.6,1.7,1.1,2.8,1.5s2.2,0.6,3.4,0.6c1,0,1.8-0.1,2.4-0.3
			c0.6-0.2,1.1-0.5,1.3-0.9c0.3-0.4,0.4-0.8,0.4-1.2c0-0.6-0.2-1-0.6-1.4c-0.4-0.3-0.9-0.6-1.6-0.8s-1.4-0.4-2.2-0.6
			c-0.8-0.2-1.6-0.4-2.4-0.6c-0.8-0.2-1.5-0.6-2.2-0.9s-1.2-0.9-1.6-1.5s-0.6-1.5-0.6-2.5c0-1,0.3-1.9,0.8-2.8
			c0.5-0.8,1.4-1.5,2.5-2c1.1-0.5,2.5-0.8,4.2-0.8c1.1,0,2.2,0.1,3.3,0.4s2.1,0.7,2.9,1.2l-1.1,2.7c-0.8-0.5-1.7-0.9-2.6-1.1
			c-0.9-0.2-1.7-0.4-2.6-0.4c-0.9,0-1.7,0.1-2.3,0.3c-0.6,0.2-1,0.5-1.3,0.9s-0.4,0.8-0.4,1.3c0,0.6,0.2,1,0.6,1.4
			c0.4,0.3,0.9,0.6,1.6,0.8c0.7,0.2,1.4,0.4,2.2,0.6c0.8,0.2,1.6,0.4,2.4,0.6s1.5,0.6,2.2,0.9c0.7,0.4,1.2,0.9,1.6,1.5
			c0.4,0.6,0.6,1.4,0.6,2.4c0,1-0.3,1.9-0.8,2.8c-0.5,0.8-1.4,1.5-2.5,2S88.9,233.8,87.2,233.8z"/>
		<path d="M106.2,233.8c-2.6,0-4.6-0.7-6-2.2c-1.5-1.4-2.2-3.5-2.2-6.3v-10.5h3.5v10.4c0,1.9,0.4,3.3,1.2,4.2c0.8,0.9,2,1.3,3.5,1.3
			c1.5,0,2.7-0.4,3.5-1.3c0.8-0.9,1.2-2.3,1.2-4.2v-10.4h3.4v10.5c0,2.7-0.7,4.8-2.2,6.3C110.8,233.1,108.8,233.8,106.2,233.8z"/>
		<path d="M119.3,233.5v-18.7h2.9l8.2,13.7h-1.5l8.1-13.7h2.9l0.1,18.7h-3.3v-13.6h0.7l-6.8,11.5h-1.6l-7-11.5h0.8v13.6H119.3z"/>
		<path d="M148.4,230.6h10.6v2.9h-14v-18.7h13.7v2.9h-10.2V230.6z M148.1,222.6h9.3v2.9h-9.3V222.6z"/>
	</g>
</g>
<line class="st1" x1="532.1" y1="126.9" x2="532.1" y2="146.5"/>
<path d="M532.1,134.7L523,157c-0.9,2.2,0.7,4.5,3,4.5h12.3c2.3,0,3.9-2.4,3-4.5L532.1,134.7z"/>
<circle cx="100" cy="43.3" r="28.6"/>
<line class="st0" x1="59.2" y1="151.9" x2="115.7" y2="151.9"/>
<line class="st0" x1="59.2" y1="127.9" x2="140.8" y2="127.9"/>
<path d="M143.2,101.7c0,3.7-3,6.7-6.7,6.7h-73c-3.7,0-6.7-3-6.7-6.7c0-23.8,19.4-43.2,43.2-43.2C123.8,58.6,143.2,77.9,143.2,101.7z
	"/>
<path class="st0" d="M371.1,33.8v132.5c0,6.7-4.7,12.1-10.4,12.1h-95.6c-5.8,0-10.4-5.4-10.4-12.1V33.8c0-6.7,4.7-12.1,10.4-12.1
	h95.6C366.5,21.7,371.1,27.1,371.1,33.8z"/>
<line class="st0" x1="395.8" y1="162.2" x2="395.8" y2="134.8"/>
<line class="st0" x1="395.8" y1="113.7" x2="395.8" y2="86.3"/>
<line class="st0" x1="395.8" y1="65.1" x2="395.8" y2="37.7"/>
<circle cx="312.9" cy="81.5" r="25.4"/>
<path d="M351.3,133.5c0,3.3-2.7,5.9-5.9,5.9h-65c-3.3,0-5.9-2.7-5.9-5.9c0-21.2,17.2-38.4,38.4-38.4
	C334.1,95.1,351.3,112.3,351.3,133.5z"/>
<path class="st0" d="M147,21.7h8.5c6.7,0,12.1,5.4,12.1,12.1v132.5c0,6.7-5.4,12.1-12.1,12.1H44.5c-6.7,0-12.1-5.4-12.1-12.1V33.8
	c0-6.7,5.4-12.1,12.1-12.1H53"/>
<path class="st0" d="M218.4,351.8h78.1c10.2,0,18.4,8.2,18.4,18.4v109.5c0,10.2-8.2,18.4-18.4,18.4h-78.1
	c-10.2,0-18.4-8.2-18.4-18.4V370.2C200,360,208.2,351.8,218.4,351.8z"/>
<path class="st0" d="M247.3,323.9h78.1c10.2,0,18.4,8.2,18.4,18.4v109.5c0,10.2-8.2,18.4-18.4,18.4h-78.1
	c-10.2,0-18.4-8.2-18.4-18.4V342.3C228.9,332.1,237.2,323.9,247.3,323.9z"/>
</svg>
