<svg id="Layer_1" data-name="Layer 1" xmlns="http://www.w3.org/2000/svg" viewBox="0 0 200 200"><defs><style>.cls-1,.cls-2{stroke:#000;}.cls-1{stroke-miterlimit:10;}.cls-2{fill:none;stroke-linecap:round;stroke-linejoin:round;stroke-width:13px;}</style></defs><circle class="cls-1" cx="100" cy="44.29" r="29.52"/><line class="cls-2" x1="57.08" y1="152.94" x2="113.62" y2="152.94"/><line class="cls-2" x1="57.08" y1="129.92" x2="142.38" y2="129.92"/><path class="cls-1" d="M144.61,104.65a6.89,6.89,0,0,1-6.89,6.88H62.28a6.89,6.89,0,0,1-6.89-6.88,44.61,44.61,0,0,1,89.22,0Z"/><path class="cls-2" d="M147,21.65h8.46a12.11,12.11,0,0,1,12.11,12.11V166.24a12.11,12.11,0,0,1-12.11,12.11H44.54a12.11,12.11,0,0,1-12.11-12.11V33.76A12.11,12.11,0,0,1,44.54,21.65H53"/></svg>