<?xml version="1.0" encoding="UTF-8"?><svg id="a" xmlns="http://www.w3.org/2000/svg" viewBox="0 0 200 200"><path d="M40.57,159.43c-4.97-16.73,8.16-27.51,8.16-27.51-26.64,5.34-18.98,30.87-23.8,43.14,12.28-4.82,37.8,2.84,43.14-23.8,0,0-10.78,13.13-27.51,8.16Z"/><path d="M126.75,120.2h0c30.94-21.19,53.27-52.51,47.39-89.71-.37-2.36-2.24-4.24-4.61-4.61-37.2-5.88-68.52,16.45-89.71,47.39h0c-31.61-2.54-40.62,19.85-46.11,32.51-.79,1.81,.78,3.76,2.71,3.37,6.01-1.2,16.53-2.62,24.7-.17-1.18,3.05-2.27,6.12-3.27,9.18-.65,1.99-.15,4.18,1.34,5.67l8.51,8.51,8.51,8.51c1.48,1.48,3.67,1.99,5.67,1.34,3.06-1,6.13-2.09,9.18-3.27,2.45,8.17,1.02,18.69-.17,24.7-.38,1.93,1.57,3.49,3.37,2.71,12.66-5.49,35.05-14.5,32.51-46.11Zm7.28-36.45c-10.53,1.73-19.51-7.25-17.78-17.78,1.05-6.38,6.19-11.52,12.57-12.57,10.53-1.73,19.51,7.25,17.78,17.78-1.05,6.38-6.19,11.52-12.57,12.57Z"/></svg>